<svg width="64" height="72" viewBox="0 0 64 72" fill="none" xmlns="http://www.w3.org/2000/svg">
<path d="M30.5076 19.083L0.407563 35.7943C0.27067 35.8714 0.10122 35.7732 0.100306 35.6162L5.11065e-06 18.3802C-0.00041981 18.3072 0.0379022 18.2394 0.100719 18.2021L30.4885 0.405014C31.3794 -0.12437 32.486 -0.135516 33.3874 0.375816L43.982 6.38587C44.0465 6.42244 44.0863 6.49081 44.0863 6.56488V24.8246C44.0863 24.9825 43.9159 25.0816 43.7785 25.0037L33.3489 19.0872C32.4682 18.5876 31.3898 18.586 30.5076 19.083Z" fill="#313C49"/>
<path d="M47.6467 43.2094L47.4281 9.14955C47.4271 8.99254 47.5953 8.89225 47.7331 8.9677L63.8918 17.3113C63.9559 17.3463 63.9966 17.4127 63.9987 17.4857V52.263C64.0293 53.2981 63.5016 54.2701 62.6165 54.809L52.213 61.1434C52.1497 61.182 52.0705 61.1836 52.0057 61.1476L36.0289 52.2804C35.8908 52.2038 35.8869 52.0068 36.0218 51.9247L46.2633 45.6889C47.1281 45.1623 47.6532 44.2212 47.6467 43.2094Z" fill="#313C49"/>
<path d="M17.8417 45.5842L47.1919 62.9121C47.3272 62.992 47.3268 63.1877 47.1912 63.267L32.3009 71.9718C32.2378 72.0087 32.1599 72.0094 32.0961 71.9737L1.6608 54.9398C0.75648 54.4337 0.19348 53.4817 0.186024 52.4462L0.0983654 40.2744C0.0978325 40.2003 0.137174 40.1317 0.201384 40.0946L16.0293 30.9647C16.1661 30.8858 16.3372 30.9837 16.3383 31.1415L16.4246 43.1238C16.4319 44.1356 16.9698 45.0695 17.8417 45.5842Z" fill="#313C49"/>
</svg>
